<?xml version="1.0" standalone="no"?>
<!DOCTYPE svg PUBLIC "-//W3C//DTD SVG 20010904//EN"
 "http://www.w3.org/TR/2001/REC-SVG-20010904/DTD/svg10.dtd">
<svg version="1.0" xmlns="http://www.w3.org/2000/svg"
 width="512.000000pt" height="512.000000pt" viewBox="0 0 512.000000 512.000000"
 preserveAspectRatio="xMidYMid meet">
<metadata>
Created by potrace 1.11, written by Peter Selinger 2001-2013
</metadata>
<g transform="translate(0.000000,512.000000) scale(0.100000,-0.100000)"
fill="#000000" stroke="none">
<path d="M2129 5108 c0 -7 -1 -77 -2 -156 l0 -142 -41 -11 c-88 -23 -255 -83
-336 -122 -83 -39 -240 -128 -270 -152 -11 -10 -103 -13 -371 -13 -197 0 -361
-2 -365 -5 -10 -6 -9 -350 0 -410 9 -57 49 -129 100 -179 l44 -45 -45 -94
c-59 -123 -98 -229 -132 -361 -15 -59 -30 -110 -34 -114 -3 -4 -89 -7 -189 -8
l-183 -1 -1 -184 c-1 -202 5 -252 38 -319 51 -101 149 -167 274 -185 59 -9 74
-14 74 -28 0 -28 48 -199 80 -288 17 -46 53 -129 80 -184 27 -55 47 -103 45
-106 -3 -3 -40 -5 -82 -5 l-76 -1 1 -206 c1 -238 13 -288 86 -367 92 -100 161
-123 365 -118 154 3 196 11 254 50 l35 24 36 -24 c19 -13 38 -24 42 -24 4 0
15 -7 24 -15 22 -20 239 -126 318 -154 66 -25 68 -27 52 -75 -5 -17 -24 -85
-41 -151 -17 -66 -40 -149 -50 -185 -10 -36 -20 -74 -22 -85 -2 -11 -9 -40
-16 -65 -8 -25 -14 -52 -16 -60 -2 -13 -83 -16 -636 -20 -349 -3 -641 -9 -650
-13 -36 -18 -42 -51 -41 -229 0 -233 -1 -222 28 -252 l27 -26 2016 0 c1109 0
2025 3 2036 6 11 3 29 17 39 31 17 23 19 45 19 212 1 102 -2 198 -6 213 -11
43 -52 58 -160 58 l-94 0 0 134 c-1 168 -6 196 -46 239 -52 56 -68 60 -218 61
-134 0 -136 -1 -177 -30 -72 -51 -80 -80 -81 -296 l-1 -108 -270 0 -269 0 -11
43 c-6 23 -18 65 -26 93 -8 28 -16 60 -18 70 -2 11 -27 104 -55 207 -28 104
-51 192 -51 197 0 5 26 18 58 30 111 41 243 106 351 173 l73 45 35 -24 c58
-39 100 -47 259 -51 163 -3 213 6 284 53 53 35 64 45 98 92 56 78 64 122 65
337 0 105 -3 197 -7 203 -4 7 -36 10 -81 8 -41 -1 -75 1 -75 4 0 4 24 56 54
116 51 104 119 286 131 349 3 17 11 52 18 79 l13 50 78 13 c113 19 193 71 252
165 42 66 52 135 50 338 l-1 185 -155 2 c-85 1 -172 2 -192 2 -31 1 -38 5 -38
21 0 61 -89 328 -154 465 l-44 90 43 41 c44 42 73 90 95 157 15 48 20 437 5
438 -5 0 -167 1 -360 1 l-350 0 -105 63 c-58 35 -139 79 -180 98 -81 38 -258
107 -276 107 -6 0 -33 7 -61 15 l-50 15 1 155 1 155 -432 0 c-339 0 -433 -3
-434 -12z m46 -514 c28 -53 108 -120 173 -145 50 -20 76 -22 212 -22 136 0
162 2 212 22 65 25 145 92 173 145 12 22 27 36 39 36 30 0 213 -64 301 -105
65 -31 204 -106 225 -122 2 -2 5 -70 6 -151 0 -81 6 -166 13 -189 27 -97 130
-200 229 -229 35 -10 99 -16 180 -17 l126 -2 42 -82 c23 -45 56 -119 74 -165
33 -87 82 -259 75 -266 -2 -2 -72 -4 -155 -4 l-151 1 3 -222 3 -222 29 -58
c33 -63 93 -125 153 -155 37 -19 101 -38 116 -34 9 3 10 7 -13 -87 -38 -153
-120 -348 -194 -463 -20 -32 -42 -59 -49 -59 -7 -1 -115 -2 -242 -4 -126 -1
-233 -3 -236 -4 -11 -2 -2 -415 10 -445 6 -16 10 -30 9 -31 -113 -78 -409
-218 -426 -201 -3 4 -46 164 -207 766 -53 201 -109 411 -124 467 l-28 102 48
31 c224 145 255 472 63 663 -79 79 -171 118 -287 123 -181 7 -325 -80 -405
-246 -36 -72 -37 -79 -37 -185 0 -104 2 -114 33 -177 33 -70 118 -165 170
-192 l29 -15 -49 -183 c-27 -101 -51 -190 -53 -198 -5 -24 -184 -694 -221
-829 -19 -68 -36 -126 -38 -128 -14 -14 -280 109 -369 170 -21 14 -42 27 -48
29 -6 2 -5 16 3 38 8 23 12 103 13 240 l0 205 -240 1 c-132 1 -243 2 -247 3
-13 2 -80 113 -120 201 -46 97 -94 224 -109 284 -10 44 -13 55 -24 99 -4 15
-3 27 1 25 16 -4 78 14 117 34 60 30 120 92 153 155 l29 58 3 221 3 222 -150
-1 c-83 0 -153 2 -156 4 -5 5 31 153 45 184 4 11 20 53 35 93 15 39 46 109 68
155 l42 82 125 2 c145 1 194 12 265 58 62 39 110 98 138 168 17 43 20 78 22
205 1 84 4 154 6 155 16 13 137 81 197 111 80 39 295 116 327 116 13 0 27 -13
40 -36z m457 -2165 c26 -96 50 -183 52 -194 2 -11 30 -114 61 -230 31 -115 59
-217 61 -225 2 -8 11 -42 20 -75 9 -33 17 -67 19 -75 2 -8 12 -47 22 -85 l19
-70 -325 0 c-215 1 -325 5 -324 11 4 24 295 1109 298 1115 2 3 14 5 27 4 21
-1 27 -17 70 -176z m-469 -1452 c27 -63 95 -129 166 -164 53 -27 64 -28 211
-30 205 -3 277 19 363 111 31 34 77 117 77 140 0 8 4 17 9 20 6 4 37 -90 57
-174 1 -8 19 -76 39 -150 20 -74 38 -142 40 -150 3 -8 7 -25 11 -37 l6 -22
-576 1 c-317 0 -578 3 -580 7 -3 4 12 70 33 146 21 77 53 198 72 268 27 104
35 124 42 105 5 -13 19 -45 30 -71z"/>
</g>
</svg>
